<svg xmlns="http://www.w3.org/2000/svg" width="430" height="430" fill="none" viewBox="0 0 430 430"><path fill="url(#tq2Hw49XyEa)" fill-rule="evenodd" d="M165.857 100c0-40.317 32.683-73 73-73h73.75a3 3 0 0 1 3 3v72.679a3 3 0 0 1-3 3h-51.071c-9.389 0-17 7.611-17 17v49.678h74.678a3 3 0 0 1 2.895 3.789l-19.822 72.679a3 3 0 0 1-2.894 2.211h-54.857V400a3 3 0 0 1-3 3h-72.679a3 3 0 0 1-2.121-.879 3 3 0 0 1-.879-2.121V251.036H111a3 3 0 0 1-3-3v-72.679a3 3 0 0 1 3-3h54.857zm73-67c-37.003 0-67 29.997-67 67v75.357a3 3 0 0 1-3 3H114v66.679h54.857a3 3 0 0 1 3 3V397h66.679V248.036a3 3 0 0 1 3-3h55.565l18.186-66.679h-73.751a3 3 0 0 1-3-3v-52.678c0-12.703 10.297-23 23-23h48.071V33z" clip-rule="evenodd"/><defs><linearGradient id="tq2Hw49XyEa" x1="178.075" x2="361.781" y1="110.501" y2="228.388" gradientUnits="userSpaceOnUse"><stop stop-color="#013d19"/><stop offset="1" stop-color="#013d19"/></linearGradient></defs></svg>