<svg xmlns="http://www.w3.org/2000/svg" width="430" height="430" fill="none" viewBox="0 0 430 430"><path fill="url(#5JoaYobbvKa)" fill-rule="evenodd" d="M127 215c0-48.601 39.399-88 88-88s88 39.399 88 88-39.399 88-88 88-88-39.399-88-88m88-82c-45.287 0-82 36.713-82 82s36.713 82 82 82 82-36.713 82-82-36.713-82-82-82" clip-rule="evenodd"/><path fill="url(#a5A1JA4zAob)" d="M315 109a6 6 0 1 0 0 12h.1a6 6 0 1 0 0-12z"/><path fill="url(#nfZQkuk2BVc)" fill-rule="evenodd" d="M52 115c0-34.794 28.206-63 63-63h200c34.794 0 63 28.206 63 63v200c0 34.794-28.206 63-63 63H115c-34.794 0-63-28.206-63-63zm63-57c-31.48 0-57 25.52-57 57v200c0 31.48 25.52 57 57 57h200c31.48 0 57-25.52 57-57V115c0-31.48-25.52-57-57-57z" clip-rule="evenodd"/><defs><linearGradient id="5JoaYobbvKa" x1="158.643" x2="332.616" y1="124.397" y2="320.357" gradientUnits="userSpaceOnUse"><stop stop-color="#013d19"/><stop offset="1" stop-color="#013d19"/></linearGradient><linearGradient id="a5A1JA4zAob" x1="158.643" x2="332.616" y1="124.397" y2="320.357" gradientUnits="userSpaceOnUse"><stop stop-color="#013d19"/><stop offset="1" stop-color="#013d19"/></linearGradient><linearGradient id="nfZQkuk2BVc" x1="158.643" x2="332.616" y1="124.397" y2="320.357" gradientUnits="userSpaceOnUse"><stop stop-color="#013d19"/><stop offset="1" stop-color="#013d19"/></linearGradient></defs></svg>