<svg xmlns="http://www.w3.org/2000/svg" width="430" height="430" fill="none" viewBox="0 0 430 430"><path fill="url(#iBXT7AiZ5va)" fill-rule="evenodd" d="M212.631 30a3 3 0 0 1 3-3h73.816a3 3 0 0 1 3 3c0 41.388 33.542 74.938 74.917 74.938a3 3 0 0 1 3 3v73.836a3 3 0 0 1-3 3c-27.173 0-52.718-7.009-74.917-19.319v125.432q0 .158-.016.314C291.387 353.124 240.879 403 178.723 403 115.915 403 65 352.07 65 289.246c0-61.414 48.654-111.461 109.513-113.677a3 3 0 0 1 3.11 2.998v73.986a3 3 0 0 1-2.671 2.982c-16.95 1.875-30.136 16.254-30.136 33.711 0 18.733 15.181 33.918 33.907 33.918 18.722 0 33.901-15.177 33.908-33.904m73.816 1.358q-.01.112-.012.225C285.582 349.618 237.684 397 178.723 397 119.23 397 71 348.758 71 289.246c0-57.125 44.44-103.867 100.623-107.523v68.236c-18.655 3.352-32.807 19.665-32.807 39.287 0 22.045 17.866 39.918 39.907 39.918 22.037 0 39.9-17.864 39.908-39.903V33h67.871c1.541 42.314 35.557 76.341 77.862 77.883v67.861c-26.8-.53-51.853-8.148-73.374-21.056a3 3 0 0 0-4.543 2.573z" clip-rule="evenodd"/><path fill="url(#1_aF0x0Hf5b)" d="M212.631 30v255.144Z"/><path fill="url(#KKNRjmJaw6c)" d="M212.631 285.144v1.36Z"/><path fill="url(#Br_Y0r7C7bd)" d="M212.631 286.504v2.728Z"/><defs><linearGradient id="iBXT7AiZ5va" x1="164.892" x2="366.172" y1="110.501" y2="294.627" gradientUnits="userSpaceOnUse"><stop stop-color="#013d19"/><stop offset="1" stop-color="#013d19"/></linearGradient><linearGradient id="1_aF0x0Hf5b" x1="164.892" x2="366.172" y1="110.501" y2="294.627" gradientUnits="userSpaceOnUse"><stop stop-color="#013d19"/><stop offset="1" stop-color="#013d19"/></linearGradient><linearGradient id="KKNRjmJaw6c" x1="164.892" x2="366.172" y1="110.501" y2="294.627" gradientUnits="userSpaceOnUse"><stop stop-color="#013d19"/><stop offset="1" stop-color="#013d19"/></linearGradient><linearGradient id="Br_Y0r7C7bd" x1="164.892" x2="366.172" y1="110.501" y2="294.627" gradientUnits="userSpaceOnUse"><stop stop-color="#013d19"/><stop offset="1" stop-color="#013d19"/></linearGradient></defs></svg>